<svg width="391" height="111" viewBox="0 0 391 111" fill="none" xmlns="http://www.w3.org/2000/svg">
<g clip-path="url(#clip0_920_7)">
<path d="M132.729 22.1958C136.729 6.22574 152.074 -3.25168 167.003 1.02748C181.931 5.30671 190.791 21.722 186.791 37.692L179.548 66.6085C171.548 98.5482 140.858 117.503 111 108.945L132.729 22.1958Z" fill="white"/>
<path d="M50 111C77.6142 111 100 88.6142 100 61C100 33.3858 77.6142 11 50 11C22.3858 11 0 33.3858 0 61C0 88.6142 22.3858 111 50 111Z" fill="white"/>
<path d="M257.307 22.1958C253.05 6.22574 236.719 -3.25168 220.832 1.02748C204.946 5.30671 195.517 21.722 199.773 37.692L207.482 66.6085C215.995 98.5482 248.656 117.503 280.431 108.945L257.307 22.1958Z" fill="white"/>
<path d="M341.431 111C313.816 111 291.431 88.6142 291.431 61C291.431 33.3858 313.816 11 341.431 11C369.045 11 391.431 33.3858 391.431 61C391.431 88.6142 369.045 111 341.431 111Z" fill="white"/>
</g>
<defs>
<clipPath id="clip0_920_7">
<rect width="391" height="111" fill="white"/>
</clipPath>
</defs>
</svg>
