<svg width="139" height="45" viewBox="0 0 139 45" fill="none" xmlns="http://www.w3.org/2000/svg">
<path d="M7.25962 29.3508C11.269 29.3508 14.5192 26.0797 14.5192 22.0446C14.5192 18.0095 11.269 14.7384 7.25962 14.7384C3.25024 14.7384 0 18.0095 0 22.0446C0 26.0797 3.25024 29.3508 7.25962 29.3508Z" fill="white"/>
<path d="M7.25962 29.3508C11.269 29.3508 14.5192 26.0797 14.5192 22.0446C14.5192 18.0095 11.269 14.7384 7.25962 14.7384C3.25024 14.7384 0 18.0095 0 22.0446C0 26.0797 3.25024 29.3508 7.25962 29.3508Z" fill="white"/>
<path d="M7.25962 29.3508C11.269 29.3508 14.5192 26.0797 14.5192 22.0446C14.5192 18.0095 11.269 14.7384 7.25962 14.7384C3.25024 14.7384 0 18.0095 0 22.0446C0 26.0797 3.25024 29.3508 7.25962 29.3508Z" fill="white"/>
<path d="M0 37.2867C0 33.1821 3.30628 29.8546 7.38479 29.8546H14.5192V44.7188H7.38479C3.30628 44.7188 0 41.3913 0 37.2867Z" fill="white"/>
<path d="M0 14.6124C0 6.54217 6.50046 0 14.5192 0V0.251963C14.5192 8.32214 8.01877 14.8643 0 14.8643V14.6124Z" fill="white"/>
<path d="M29.0383 37.2868C29.0383 41.3913 25.732 44.7189 21.6535 44.7189H14.519V29.8546H21.6535C25.732 29.8546 29.0383 33.1821 29.0383 37.2868Z" fill="white"/>
<path d="M57.596 31.788C58.22 31.788 58.736 31.992 59.144 32.4C59.576 32.784 59.792 33.288 59.792 33.912C59.792 34.512 59.576 35.016 59.144 35.424C58.736 35.808 58.22 36 57.596 36H45.896C45.272 36 44.744 35.796 44.312 35.388C43.904 34.956 43.7 34.428 43.7 33.804V12.996C43.7 12.372 43.916 11.856 44.348 11.448C44.78 11.016 45.332 10.8 46.004 10.8C46.604 10.8 47.12 11.016 47.552 11.448C47.984 11.856 48.2 12.372 48.2 12.996V31.788H57.596Z" fill="white"/>
<path d="M68.4148 33.804C68.4148 34.428 68.1868 34.956 67.7308 35.388C67.2748 35.796 66.7468 36 66.1468 36C65.4988 36 64.9588 35.796 64.5268 35.388C64.1188 34.956 63.9148 34.428 63.9148 33.804V12.996C63.9148 12.372 64.1308 11.856 64.5628 11.448C64.9948 11.016 65.5468 10.8 66.2188 10.8C66.8188 10.8 67.3348 11.016 67.7668 11.448C68.1988 11.856 68.4148 12.372 68.4148 12.996V33.804Z" fill="white"/>
<path d="M88.9489 22.032C90.2209 22.536 91.2529 23.304 92.0449 24.336C92.8609 25.368 93.2689 26.7 93.2689 28.332C93.2689 31.188 92.4529 33.18 90.8209 34.308C89.1889 35.436 87.2449 36 84.9889 36H76.0249C75.4009 36 74.8729 35.796 74.4409 35.388C74.0329 34.956 73.8289 34.428 73.8289 33.804V12.996C73.8289 12.372 74.0329 11.856 74.4409 11.448C74.8729 11.016 75.4009 10.8 76.0249 10.8H85.0969C89.6569 10.8 91.9369 12.936 91.9369 17.208C91.9369 18.288 91.6729 19.248 91.1449 20.088C90.6409 20.904 89.9089 21.552 88.9489 22.032ZM87.2569 18C87.2569 17.016 87.0049 16.284 86.5009 15.804C86.0209 15.3 85.3369 15.048 84.4489 15.048H78.5089V20.664H84.5569C85.2769 20.664 85.9009 20.424 86.4289 19.944C86.9809 19.464 87.2569 18.816 87.2569 18ZM84.9889 31.86C86.1169 31.86 86.9929 31.56 87.6169 30.96C88.2649 30.36 88.5889 29.484 88.5889 28.332C88.5889 26.916 88.2169 25.992 87.4729 25.56C86.7289 25.128 85.8169 24.912 84.7369 24.912H78.5089V31.86H84.9889Z" fill="white"/>
<path d="M112.539 22.032C113.811 22.536 114.843 23.304 115.635 24.336C116.451 25.368 116.859 26.7 116.859 28.332C116.859 31.188 116.043 33.18 114.411 34.308C112.779 35.436 110.835 36 108.579 36H99.6147C98.9907 36 98.4627 35.796 98.0307 35.388C97.6227 34.956 97.4187 34.428 97.4187 33.804V12.996C97.4187 12.372 97.6227 11.856 98.0307 11.448C98.4627 11.016 98.9907 10.8 99.6147 10.8H108.687C113.247 10.8 115.527 12.936 115.527 17.208C115.527 18.288 115.263 19.248 114.735 20.088C114.231 20.904 113.499 21.552 112.539 22.032ZM110.847 18C110.847 17.016 110.595 16.284 110.091 15.804C109.611 15.3 108.927 15.048 108.039 15.048H102.099V20.664H108.147C108.867 20.664 109.491 20.424 110.019 19.944C110.571 19.464 110.847 18.816 110.847 18ZM108.579 31.86C109.707 31.86 110.583 31.56 111.207 30.96C111.855 30.36 112.179 29.484 112.179 28.332C112.179 26.916 111.807 25.992 111.063 25.56C110.319 25.128 109.407 24.912 108.327 24.912H102.099V31.86H108.579Z" fill="white"/>
<path d="M138.381 12.924C138.381 13.404 138.249 13.848 137.985 14.256L130.461 25.02V33.804C130.461 34.428 130.257 34.956 129.849 35.388C129.441 35.796 128.949 36 128.373 36C127.773 36 127.257 35.796 126.825 35.388C126.417 34.956 126.213 34.428 126.213 33.804V24.516L118.725 14.58C118.293 14.004 118.077 13.44 118.077 12.888C118.077 12.264 118.317 11.748 118.797 11.34C119.301 10.908 119.829 10.692 120.381 10.692C121.053 10.692 121.641 11.028 122.145 11.7L128.481 20.448L134.421 11.772C134.925 11.052 135.525 10.692 136.221 10.692C136.797 10.692 137.301 10.908 137.733 11.34C138.165 11.772 138.381 12.3 138.381 12.924Z" fill="white"/>
</svg>
