<svg width="546" height="131" viewBox="0 0 546 131" fill="none" xmlns="http://www.w3.org/2000/svg">
<path d="M3.57 96.285C2.94 95.445 2.625 94.395 2.625 93.135C2.625 91.315 3.535 89.775 5.355 88.515C6.335 87.885 7.35 87.57 8.4 87.57C9.87 87.57 11.27 88.235 12.6 89.565C14.7 91.735 16.87 93.345 19.11 94.395C21.42 95.445 24.185 95.97 27.405 95.97C32.865 95.76 35.595 93.695 35.595 89.775C35.595 87.745 34.65 86.205 32.76 85.155C30.94 84.105 28.07 83.055 24.15 82.005C20.09 80.885 16.765 79.765 14.175 78.645C11.655 77.525 9.45 75.845 7.56 73.605C5.74 71.295 4.83 68.215 4.83 64.365C4.83 61.005 5.775 58.1 7.665 55.65C9.625 53.13 12.145 51.205 15.225 49.875C18.375 48.475 21.7 47.775 25.2 47.775C28.77 47.775 32.34 48.44 35.91 49.77C39.48 51.1 42.28 53.06 44.31 55.65C45.22 56.77 45.675 58.03 45.675 59.43C45.675 61.04 45.01 62.37 43.68 63.42C42.7 64.19 41.58 64.575 40.32 64.575C38.78 64.575 37.52 64.085 36.54 63.105C35.28 61.565 33.635 60.34 31.605 59.43C29.645 58.52 27.405 58.065 24.885 58.065C19.565 58.065 16.905 59.99 16.905 63.84C16.905 65.38 17.395 66.64 18.375 67.62C19.355 68.53 20.58 69.265 22.05 69.825C23.59 70.315 25.725 70.945 28.455 71.715C32.235 72.765 35.385 73.85 37.905 74.97C40.425 76.09 42.56 77.805 44.31 80.115C46.06 82.425 46.935 85.47 46.935 89.25C46.935 92.68 45.92 95.69 43.89 98.28C41.86 100.8 39.235 102.725 36.015 104.055C32.865 105.385 29.61 106.05 26.25 106.05C21.63 106.05 17.325 105.28 13.335 103.74C9.345 102.2 6.09 99.715 3.57 96.285ZM84.5693 93.135C85.5493 93.135 86.4243 93.625 87.1943 94.605C88.0343 95.515 88.4543 96.74 88.4543 98.28C88.4543 100.17 87.4043 101.78 85.3043 103.11C83.2743 104.37 80.9643 105 78.3743 105C74.0343 105 70.3593 104.09 67.3493 102.27C64.4093 100.38 62.9393 96.425 62.9393 90.405V61.425H58.1093C56.4293 61.425 55.0293 60.865 53.9093 59.745C52.7893 58.625 52.2293 57.225 52.2293 55.545C52.2293 53.935 52.7893 52.605 53.9093 51.555C55.0293 50.435 56.4293 49.875 58.1093 49.875H62.9393V43.155C62.9393 41.335 63.5343 39.83 64.7243 38.64C65.9843 37.38 67.5243 36.75 69.3443 36.75C71.0943 36.75 72.5643 37.38 73.7543 38.64C74.9443 39.83 75.5393 41.335 75.5393 43.155V49.875H82.9943C84.6743 49.875 86.0743 50.435 87.1943 51.555C88.3143 52.675 88.8743 54.075 88.8743 55.755C88.8743 57.365 88.3143 58.73 87.1943 59.85C86.0743 60.9 84.6743 61.425 82.9943 61.425H75.5393V89.88C75.5393 91.35 75.9243 92.435 76.6943 93.135C77.4643 93.765 78.5143 94.08 79.8443 94.08C80.4043 94.08 81.1743 93.94 82.1543 93.66C82.9943 93.31 83.7993 93.135 84.5693 93.135ZM129.633 47.775C131.733 47.775 133.483 48.37 134.883 49.56C136.353 50.75 137.088 52.15 137.088 53.76C137.088 55.93 136.528 57.575 135.408 58.695C134.288 59.745 132.958 60.27 131.418 60.27C130.368 60.27 129.178 60.025 127.848 59.535C127.638 59.465 127.148 59.325 126.378 59.115C125.678 58.905 124.908 58.8 124.068 58.8C122.248 58.8 120.498 59.36 118.818 60.48C117.138 61.6 115.738 63.315 114.618 65.625C113.568 67.865 113.043 70.56 113.043 73.71V98.595C113.043 100.415 112.448 101.955 111.258 103.215C110.068 104.405 108.563 105 106.743 105C104.923 105 103.418 104.405 102.228 103.215C101.038 101.955 100.443 100.415 100.443 98.595V55.23C100.443 53.41 101.038 51.905 102.228 50.715C103.418 49.455 104.923 48.825 106.743 48.825C108.563 48.825 110.068 49.455 111.258 50.715C112.448 51.905 113.043 53.41 113.043 55.23V56.595C114.653 53.725 116.963 51.555 119.973 50.085C122.983 48.545 126.203 47.775 129.633 47.775ZM194.012 75.6C193.942 77.28 193.277 78.645 192.017 79.695C190.757 80.745 189.287 81.27 187.607 81.27H152.957C153.797 85.4 155.722 88.655 158.732 91.035C161.742 93.345 165.137 94.5 168.917 94.5C171.787 94.5 174.027 94.255 175.637 93.765C177.247 93.205 178.507 92.645 179.417 92.085C180.397 91.455 181.062 91.035 181.412 90.825C182.672 90.195 183.862 89.88 184.982 89.88C186.452 89.88 187.712 90.405 188.762 91.455C189.812 92.505 190.337 93.73 190.337 95.13C190.337 97.02 189.357 98.735 187.397 100.275C185.437 101.885 182.812 103.25 179.522 104.37C176.232 105.49 172.907 106.05 169.547 106.05C163.667 106.05 158.522 104.825 154.112 102.375C149.772 99.925 146.412 96.565 144.032 92.295C141.652 87.955 140.462 83.09 140.462 77.7C140.462 71.68 141.722 66.395 144.242 61.845C146.762 57.295 150.087 53.83 154.217 51.45C158.347 49 162.757 47.775 167.447 47.775C172.067 47.775 176.407 49.035 180.467 51.555C184.597 54.075 187.887 57.47 190.337 61.74C192.787 66.01 194.012 70.63 194.012 75.6ZM167.447 59.325C159.327 59.325 154.532 63.14 153.062 70.77H180.572V70.035C180.292 67.095 178.857 64.575 176.267 62.475C173.677 60.375 170.737 59.325 167.447 59.325ZM250.395 47.775C252.215 47.775 253.72 48.37 254.91 49.56C256.1 50.75 256.695 52.29 256.695 54.18V98.595C256.695 100.415 256.1 101.955 254.91 103.215C253.72 104.405 252.215 105 250.395 105C248.575 105 247.07 104.405 245.88 103.215C244.76 102.025 244.165 100.52 244.095 98.7C242.345 100.73 239.965 102.48 236.955 103.95C234.015 105.35 230.9 106.05 227.61 106.05C222.78 106.05 218.405 104.825 214.485 102.375C210.565 99.855 207.45 96.39 205.14 91.98C202.9 87.57 201.78 82.565 201.78 76.965C201.78 71.365 202.9 66.36 205.14 61.95C207.38 57.47 210.425 54.005 214.275 51.555C218.195 49.035 222.5 47.775 227.19 47.775C230.55 47.775 233.7 48.405 236.64 49.665C239.58 50.855 242.065 52.395 244.095 54.285V54.18C244.095 52.36 244.69 50.855 245.88 49.665C247.07 48.405 248.575 47.775 250.395 47.775ZM229.185 94.5C233.735 94.5 237.445 92.855 240.315 89.565C243.185 86.205 244.62 82.005 244.62 76.965C244.62 71.925 243.185 67.725 240.315 64.365C237.445 61.005 233.735 59.325 229.185 59.325C224.705 59.325 221.03 61.005 218.16 64.365C215.29 67.725 213.855 71.925 213.855 76.965C213.855 82.005 215.255 86.205 218.055 89.565C220.925 92.855 224.635 94.5 229.185 94.5ZM335.135 47.775C342.065 47.775 346.86 49.91 349.52 54.18C352.18 58.38 353.51 64.225 353.51 71.715V98.595C353.51 100.415 352.915 101.955 351.725 103.215C350.535 104.405 349.03 105 347.21 105C345.39 105 343.885 104.405 342.695 103.215C341.505 101.955 340.91 100.415 340.91 98.595V71.715C340.91 67.865 340.14 64.855 338.6 62.685C337.13 60.445 334.505 59.325 330.725 59.325C326.805 59.325 323.725 60.515 321.485 62.895C319.315 65.205 318.23 68.145 318.23 71.715V98.595C318.23 100.415 317.635 101.955 316.445 103.215C315.255 104.405 313.75 105 311.93 105C310.11 105 308.605 104.405 307.415 103.215C306.225 101.955 305.63 100.415 305.63 98.595V71.715C305.63 67.865 304.86 64.855 303.32 62.685C301.85 60.445 299.225 59.325 295.445 59.325C291.525 59.325 288.445 60.515 286.205 62.895C284.035 65.205 282.95 68.145 282.95 71.715V98.595C282.95 100.415 282.355 101.955 281.165 103.215C279.975 104.405 278.47 105 276.65 105C274.83 105 273.325 104.405 272.135 103.215C270.945 101.955 270.35 100.415 270.35 98.595V55.23C270.35 53.41 270.945 51.905 272.135 50.715C273.325 49.455 274.83 48.825 276.65 48.825C278.47 48.825 279.975 49.455 281.165 50.715C282.355 51.905 282.95 53.41 282.95 55.23V56.91C284.84 54.39 287.22 52.255 290.09 50.505C293.03 48.685 296.285 47.775 299.855 47.775C308.675 47.775 314.31 51.625 316.76 59.325C318.37 56.385 320.785 53.725 324.005 51.345C327.295 48.965 331.005 47.775 335.135 47.775ZM417.547 75.6C417.477 77.28 416.812 78.645 415.552 79.695C414.292 80.745 412.822 81.27 411.142 81.27H376.492C377.332 85.4 379.257 88.655 382.267 91.035C385.277 93.345 388.672 94.5 392.452 94.5C395.322 94.5 397.562 94.255 399.172 93.765C400.782 93.205 402.042 92.645 402.952 92.085C403.932 91.455 404.597 91.035 404.947 90.825C406.207 90.195 407.397 89.88 408.517 89.88C409.987 89.88 411.247 90.405 412.297 91.455C413.347 92.505 413.872 93.73 413.872 95.13C413.872 97.02 412.892 98.735 410.932 100.275C408.972 101.885 406.347 103.25 403.057 104.37C399.767 105.49 396.442 106.05 393.082 106.05C387.202 106.05 382.057 104.825 377.647 102.375C373.307 99.925 369.947 96.565 367.567 92.295C365.187 87.955 363.997 83.09 363.997 77.7C363.997 71.68 365.257 66.395 367.777 61.845C370.297 57.295 373.622 53.83 377.752 51.45C381.882 49 386.292 47.775 390.982 47.775C395.602 47.775 399.942 49.035 404.002 51.555C408.132 54.075 411.422 57.47 413.872 61.74C416.322 66.01 417.547 70.63 417.547 75.6ZM390.982 59.325C382.862 59.325 378.067 63.14 376.597 70.77H404.107V70.035C403.827 67.095 402.392 64.575 399.802 62.475C397.212 60.375 394.272 59.325 390.982 59.325ZM457.245 47.775C459.345 47.775 461.095 48.37 462.495 49.56C463.965 50.75 464.7 52.15 464.7 53.76C464.7 55.93 464.14 57.575 463.02 58.695C461.9 59.745 460.57 60.27 459.03 60.27C457.98 60.27 456.79 60.025 455.46 59.535C455.25 59.465 454.76 59.325 453.99 59.115C453.29 58.905 452.52 58.8 451.68 58.8C449.86 58.8 448.11 59.36 446.43 60.48C444.75 61.6 443.35 63.315 442.23 65.625C441.18 67.865 440.655 70.56 440.655 73.71V98.595C440.655 100.415 440.06 101.955 438.87 103.215C437.68 104.405 436.175 105 434.355 105C432.535 105 431.03 104.405 429.84 103.215C428.65 101.955 428.055 100.415 428.055 98.595V55.23C428.055 53.41 428.65 51.905 429.84 50.715C431.03 49.455 432.535 48.825 434.355 48.825C436.175 48.825 437.68 49.455 438.87 50.715C440.06 51.905 440.655 53.41 440.655 55.23V56.595C442.265 53.725 444.575 51.555 447.585 50.085C450.595 48.545 453.815 47.775 457.245 47.775Z" fill="white"/>
<circle cx="515" cy="77" r="31" fill="#CF4747"/>
<path d="M495.664 92.952C494.736 92.952 494.016 92.712 493.504 92.232C493.024 91.72 492.784 91 492.784 90.072V89.256C492.784 88.328 493.024 87.624 493.504 87.144C494.016 86.632 494.736 86.376 495.664 86.376H496.288C497.216 86.376 497.92 86.632 498.4 87.144C498.912 87.624 499.168 88.328 499.168 89.256V90.072C499.168 91 498.912 91.72 498.4 92.232C497.92 92.712 497.216 92.952 496.288 92.952H495.664ZM510.497 90.072C510.497 90.904 510.225 91.608 509.681 92.184C509.137 92.728 508.449 93 507.617 93C506.785 93 506.097 92.728 505.553 92.184C505.009 91.608 504.737 90.904 504.737 90.072V70.248C504.737 69.416 505.009 68.728 505.553 68.184C506.097 67.608 506.785 67.32 507.617 67.32C508.449 67.32 509.137 67.608 509.681 68.184C510.225 68.728 510.497 69.416 510.497 70.248V90.072ZM507.569 64.2C506.481 64.2 505.713 64.024 505.265 63.672C504.817 63.32 504.593 62.696 504.593 61.8V60.888C504.593 59.992 504.833 59.368 505.313 59.016C505.793 58.664 506.561 58.488 507.617 58.488C508.737 58.488 509.521 58.664 509.969 59.016C510.417 59.368 510.641 59.992 510.641 60.888V61.8C510.641 62.728 510.401 63.368 509.921 63.72C509.473 64.04 508.689 64.2 507.569 64.2ZM514.929 89.016C514.641 88.632 514.497 88.152 514.497 87.576C514.497 86.744 514.913 86.04 515.745 85.464C516.193 85.176 516.657 85.032 517.137 85.032C517.809 85.032 518.449 85.336 519.057 85.944C520.017 86.936 521.009 87.672 522.033 88.152C523.089 88.632 524.353 88.872 525.825 88.872C528.321 88.776 529.569 87.832 529.569 86.04C529.569 85.112 529.137 84.408 528.273 83.928C527.441 83.448 526.129 82.968 524.337 82.488C522.481 81.976 520.961 81.464 519.777 80.952C518.625 80.44 517.617 79.672 516.753 78.648C515.921 77.592 515.505 76.184 515.505 74.424C515.505 72.888 515.937 71.56 516.801 70.44C517.697 69.288 518.849 68.408 520.257 67.8C521.697 67.16 523.217 66.84 524.817 66.84C526.449 66.84 528.081 67.144 529.713 67.752C531.345 68.36 532.625 69.256 533.553 70.44C533.969 70.952 534.177 71.528 534.177 72.168C534.177 72.904 533.873 73.512 533.265 73.992C532.817 74.344 532.305 74.52 531.729 74.52C531.025 74.52 530.449 74.296 530.001 73.848C529.425 73.144 528.673 72.584 527.745 72.168C526.849 71.752 525.825 71.544 524.673 71.544C522.241 71.544 521.025 72.424 521.025 74.184C521.025 74.888 521.249 75.464 521.697 75.912C522.145 76.328 522.705 76.664 523.377 76.92C524.081 77.144 525.057 77.432 526.305 77.784C528.033 78.264 529.473 78.76 530.625 79.272C531.777 79.784 532.753 80.568 533.553 81.624C534.353 82.68 534.753 84.072 534.753 85.8C534.753 87.368 534.289 88.744 533.361 89.928C532.433 91.08 531.233 91.96 529.761 92.568C528.321 93.176 526.833 93.48 525.297 93.48C523.185 93.48 521.217 93.128 519.393 92.424C517.569 91.72 516.081 90.584 514.929 89.016Z" fill="#212121"/>
</svg>
