<svg width="391" height="111" viewBox="0 0 391 111" fill="none" xmlns="http://www.w3.org/2000/svg">
<g clip-path="url(#clip0_920_7)">
<path d="M48.07 108.14C74.6183 108.14 96.14 86.6183 96.14 60.07C96.14 33.5217 74.6183 12 48.07 12C21.5217 12 0 33.5217 0 60.07C0 86.6183 21.5217 108.14 48.07 108.14Z" fill="white"/>
<path d="M343.361 108.14C316.812 108.14 295.291 86.6183 295.291 60.07C295.291 33.5217 316.812 12 343.361 12C369.909 12 391.431 33.5217 391.431 60.07C391.431 86.6183 369.909 108.14 343.361 108.14Z" fill="white"/>
<path d="M128.94 23.996C132.952 8.88921 148.347 -0.0759104 163.325 3.97194C178.301 8.01986 187.19 23.5478 183.177 38.6546L175.91 66.008C167.884 96.2213 137.095 114.152 107.14 106.056L128.94 23.996Z" fill="white"/>
<path d="M262.341 23.996C258.328 8.88921 242.933 -0.0759104 227.956 3.97194C212.979 8.01986 204.091 23.5478 208.104 38.6546L215.37 66.008C223.396 96.2213 254.185 114.152 284.14 106.056L262.341 23.996Z" fill="white"/>
</g>
<defs>
<clipPath id="clip0_920_7">
<rect width="391" height="111" fill="white"/>
</clipPath>
</defs>
</svg>
