<svg width="1600" height="376" viewBox="0 0 1600 376" fill="none" xmlns="http://www.w3.org/2000/svg">
<g clip-path="url(#clip0)">
<path d="M164.376 31.2501C98.5452 31.2501 46.637 59.4835 17.5533 83.9874C4.41289 95.0586 -1.48362 112.122 0.316488 129.21C11.9896 240.023 92.3461 375.002 164.376 375.002C236.405 375.002 316.762 240.023 328.435 129.21C330.235 112.122 324.339 95.0586 311.198 83.9874C282.115 59.4835 230.206 31.2501 164.376 31.2501Z" fill="url(#paint0_linear)"/>
<path d="M274.933 4.42582C239.917 69.1107 193.558 97.1063 131.183 115.347C129.446 115.845 127.912 116.878 126.802 118.3C125.692 119.721 125.063 121.457 125.005 123.257C124.947 125.058 125.464 126.83 126.481 128.319C127.498 129.809 128.963 130.938 130.664 131.545C179.515 149.423 208.769 176.824 209.106 237.188C209.111 239.07 209.746 240.897 210.91 242.38C212.074 243.862 213.7 244.915 215.532 245.373C217.364 245.83 219.297 245.665 221.024 244.904C222.752 244.144 224.175 242.83 225.07 241.172C259.982 176.513 306.47 148.492 368.819 130.251C370.556 129.754 372.09 128.72 373.2 127.299C374.31 125.877 374.94 124.141 374.997 122.341C375.055 120.54 374.538 118.768 373.521 117.279C372.504 115.79 371.04 114.66 369.338 114.054C320.409 96.1748 291.26 68.7743 290.922 8.41041C290.905 6.53089 290.263 4.71016 289.096 3.23387C287.929 1.75758 286.303 0.709263 284.474 0.253395C282.644 -0.202472 280.715 -0.0400967 278.988 0.715047C277.261 1.47019 275.835 2.77537 274.933 4.42582Z" fill="#E3FF17"/>
</g>
<path d="M482.414 309.574V89.2607H578.04C602.206 89.2607 620.852 95.3024 633.977 107.386C647.102 119.469 653.665 136.344 653.665 158.011C653.665 179.678 647.102 196.657 633.977 208.949C620.852 221.032 602.206 227.074 578.04 227.074H522.414V309.574H482.414ZM522.414 195.511H571.789C600.54 195.511 614.915 183.011 614.915 158.011C614.915 133.219 600.54 120.823 571.789 120.823H522.414V195.511Z" fill="#262630"/>
<path d="M725.511 312.699C714.469 312.699 704.573 310.616 695.823 306.449C687.282 302.074 680.511 296.241 675.511 288.949C670.719 281.657 668.323 273.428 668.323 264.262C668.323 253.011 671.24 244.157 677.073 237.699C682.907 231.032 692.386 226.241 705.511 223.324C718.636 220.407 736.24 218.949 758.324 218.949H769.261V212.386C769.261 201.97 766.969 194.47 762.386 189.886C757.803 185.303 750.094 183.011 739.261 183.011C730.719 183.011 721.969 184.365 713.011 187.074C704.052 189.574 694.99 193.532 685.823 198.949L674.573 172.386C679.99 168.636 686.344 165.407 693.636 162.699C701.136 159.782 708.948 157.594 717.073 156.136C725.407 154.469 733.219 153.636 740.511 153.636C762.803 153.636 779.365 158.844 790.199 169.261C801.032 179.469 806.449 195.407 806.449 217.074V309.574H769.886V285.199C766.344 293.741 760.719 300.512 753.011 305.512C745.303 310.303 736.136 312.699 725.511 312.699ZM733.636 285.824C743.844 285.824 752.282 282.282 758.949 275.199C765.824 268.116 769.261 259.157 769.261 248.324V241.449H758.636C739.053 241.449 725.407 243.011 717.698 246.136C710.198 249.053 706.448 254.47 706.448 262.387C706.448 269.262 708.844 274.887 713.636 279.262C718.428 283.637 725.094 285.824 733.636 285.824Z" fill="#262630"/>
<path d="M899.223 312.699C881.098 312.699 867.66 307.803 858.91 298.012C850.368 288.012 846.097 273.428 846.097 254.261V89.2607H885.16V252.386C885.16 271.137 893.077 280.512 908.91 280.512C911.202 280.512 913.494 280.407 915.785 280.199C918.077 279.991 920.264 279.574 922.348 278.949L921.723 309.887C914.223 311.762 906.723 312.699 899.223 312.699Z" fill="#262630"/>
<path d="M999.016 312.699C980.891 312.699 967.453 307.803 958.703 298.012C950.161 288.012 945.89 273.428 945.89 254.261V89.2607H984.953V252.386C984.953 271.137 992.87 280.512 1008.7 280.512C1010.99 280.512 1013.29 280.407 1015.58 280.199C1017.87 279.991 1020.06 279.574 1022.14 278.949L1021.52 309.887C1014.02 311.762 1006.52 312.699 999.016 312.699Z" fill="#262630"/>
<path d="M1055.47 365.824L1083.59 303.324L1020.15 156.761H1061.72L1104.53 263.637L1148.28 156.761H1187.65L1095.78 365.824H1055.47Z" fill="#262630"/>
<path d="M1187.82 309.574V266.137H1231.57V309.574H1187.82Z" fill="#262630"/>
<path d="M1334.52 368.95C1320.36 368.95 1307.02 367.283 1294.52 363.949C1282.23 360.824 1271.4 355.929 1262.02 349.262L1273.27 322.074C1282.02 327.908 1291.4 332.179 1301.4 334.887C1311.4 337.804 1321.4 339.262 1331.4 339.262C1359.32 339.262 1373.28 325.824 1373.28 298.949V278.012C1368.9 286.553 1362.13 293.324 1352.96 298.324C1344 303.324 1334 305.824 1322.96 305.824C1309.21 305.824 1297.23 302.699 1287.02 296.449C1276.82 289.991 1268.9 281.032 1263.27 269.574C1257.65 258.116 1254.84 244.782 1254.84 229.574C1254.84 214.365 1257.65 201.136 1263.27 189.886C1268.9 178.428 1276.82 169.574 1287.02 163.324C1297.23 156.865 1309.21 153.636 1322.96 153.636C1334.42 153.636 1344.63 156.24 1353.59 161.449C1362.55 166.449 1369.11 173.219 1373.28 181.761V156.761H1411.4V294.262C1411.4 319.053 1404.84 337.699 1391.71 350.199C1378.59 362.699 1359.53 368.95 1334.52 368.95ZM1333.59 276.137C1345.67 276.137 1355.25 271.97 1362.34 263.637C1369.42 255.303 1372.96 243.949 1372.96 229.574C1372.96 215.199 1369.42 203.949 1362.34 195.824C1355.25 187.49 1345.67 183.324 1333.59 183.324C1321.5 183.324 1311.92 187.49 1304.84 195.824C1297.75 203.949 1294.21 215.199 1294.21 229.574C1294.21 243.949 1297.75 255.303 1304.84 263.637C1311.92 271.97 1321.5 276.137 1333.59 276.137Z" fill="#262630"/>
<path d="M1523.12 368.95C1508.96 368.95 1495.62 367.283 1483.12 363.949C1470.83 360.824 1460 355.929 1450.62 349.262L1461.87 322.074C1470.62 327.908 1480 332.179 1490 334.887C1500 337.804 1510 339.262 1520 339.262C1547.92 339.262 1561.87 325.824 1561.87 298.949V278.012C1557.5 286.553 1550.73 293.324 1541.56 298.324C1532.6 303.324 1522.6 305.824 1511.56 305.824C1497.81 305.824 1485.83 302.699 1475.62 296.449C1465.42 289.991 1457.5 281.032 1451.87 269.574C1446.25 258.116 1443.44 244.782 1443.44 229.574C1443.44 214.365 1446.25 201.136 1451.87 189.886C1457.5 178.428 1465.42 169.574 1475.62 163.324C1485.83 156.865 1497.81 153.636 1511.56 153.636C1523.02 153.636 1533.23 156.24 1542.19 161.449C1551.15 166.449 1557.71 173.219 1561.87 181.761V156.761H1600V294.262C1600 319.053 1593.44 337.699 1580.31 350.199C1567.19 362.699 1548.12 368.95 1523.12 368.95ZM1522.19 276.137C1534.27 276.137 1543.85 271.97 1550.94 263.637C1558.02 255.303 1561.56 243.949 1561.56 229.574C1561.56 215.199 1558.02 203.949 1550.94 195.824C1543.85 187.49 1534.27 183.324 1522.19 183.324C1510.1 183.324 1500.52 187.49 1493.44 195.824C1486.35 203.949 1482.81 215.199 1482.81 229.574C1482.81 243.949 1486.35 255.303 1493.44 263.637C1500.52 271.97 1510.1 276.137 1522.19 276.137Z" fill="#262630"/>
<defs>
<linearGradient id="paint0_linear" x1="1.83704e-06" y1="203.126" x2="328.751" y2="203.126" gradientUnits="userSpaceOnUse">
<stop stop-color="#6B70FF"/>
<stop offset="1" stop-color="#8257FD"/>
</linearGradient>
<clipPath id="clip0">
<rect width="375.002" height="375.002" fill="white"/>
</clipPath>
</defs>
</svg>
